<?xml version="1.0" standalone="no"?>
<!DOCTYPE svg PUBLIC "-//W3C//DTD SVG 20010904//EN"
 "http://www.w3.org/TR/2001/REC-SVG-20010904/DTD/svg10.dtd">
<svg version="1.0" xmlns="http://www.w3.org/2000/svg"
 width="512.000000pt" height="512.000000pt" viewBox="0 0 512.000000 512.000000"
 preserveAspectRatio="xMidYMid meet">
<metadata>
Created by potrace 1.14, written by Peter Selinger 2001-2017
</metadata>
<g transform="translate(0.000000,512.000000) scale(0.100000,-0.100000)"
fill="#000000" stroke="none">
<path d="M1644 3386 c-131 -30 -271 -121 -349 -227 -64 -87 -87 -155 -93 -270
-7 -147 26 -241 116 -340 94 -102 179 -139 438 -194 91 -19 185 -43 208 -53
96 -43 146 -114 146 -207 0 -69 -25 -120 -80 -168 -78 -67 -243 -87 -374 -47
-116 36 -224 159 -242 278 -4 23 -11 42 -17 42 -6 0 -69 -16 -139 -36 -142
-41 -137 -35 -113 -124 27 -102 73 -179 159 -265 135 -136 253 -179 491 -179
218 -1 345 44 466 165 263 262 177 673 -171 815 -30 12 -142 41 -248 63 -106
23 -210 50 -231 60 -45 24 -99 82 -106 116 -3 14 -7 36 -10 49 -11 51 15 123
60 174 63 69 126 95 235 96 176 1 260 -59 336 -240 9 -22 9 -22 137 19 l129
41 -5 33 c-11 64 -71 167 -141 240 -73 77 -144 121 -246 149 -78 21 -280 27
-356 10z"/>
<path d="M2674 3367 c-2 -7 -3 -87 -2 -177 l3 -165 698 -3 697 -2 0 180 0 180
-695 0 c-558 0 -697 -3 -701 -13z"/>
<path d="M3203 2846 c-101 -23 -198 -80 -283 -165 -126 -127 -173 -252 -173
-456 0 -202 51 -334 178 -461 279 -278 765 -214 931 122 21 41 34 77 30 81 -4
4 -58 24 -121 44 l-113 36 -23 -50 c-50 -107 -158 -164 -293 -155 -160 11
-278 114 -302 267 l-7 41 437 0 436 0 6 26 c9 36 -4 190 -21 260 -50 197 -188
343 -375 398 -78 23 -231 29 -307 12z m262 -255 c74 -33 128 -106 149 -203 l6
-28 -290 0 c-322 0 -301 -6 -274 72 29 86 106 154 201 178 52 13 159 3 208
-19z"/>
</g>
</svg>
